<?xml version="1.0" encoding="UTF-8" standalone="no"?>
<svg
   xmlns:dc="http://purl.org/dc/elements/1.1/"
   xmlns:cc="http://creativecommons.org/ns#"
   xmlns:rdf="http://www.w3.org/1999/02/22-rdf-syntax-ns#"
   xmlns:svg="http://www.w3.org/2000/svg"
   xmlns="http://www.w3.org/2000/svg"
   xmlns:sodipodi="http://sodipodi.sourceforge.net/DTD/sodipodi-0.dtd"
   xmlns:inkscape="http://www.inkscape.org/namespaces/inkscape"
   version="1.1"
   id="Layer_1"
   x="0px"
   y="0px"
   viewBox="0 0 150 150"
   enable-background="new 0 0 1685.071 1685.155"
   xml:space="preserve"
   sodipodi:docname="logo.svg"
   width="150"
   height="150"
   inkscape:version="0.92+devel unknown"
   inkscape:export-filename="./logo.png"
   inkscape:export-xdpi="95.25"
   inkscape:export-ydpi="95.25"><metadata
     id="metadata9"><rdf:RDF><cc:Work
         rdf:about=""><dc:format>image/svg+xml</dc:format><dc:type
           rdf:resource="http://purl.org/dc/dcmitype/StillImage" /><dc:title></dc:title></cc:Work></rdf:RDF></metadata><defs
     id="defs7"><linearGradient
       id="linearGradient2503-4-2-6"><stop
         offset="0"
         style="stop-color:#585858"
         id="stop2505-8-4-8" /><stop
         offset="1"
         style="stop-color:#f9f9f9"
         id="stop2507-8-8-6" /></linearGradient><linearGradient
       id="linearGradient10097-0"><stop
         offset="0"
         style="stop-color:#232323"
         id="stop10099-3" /><stop
         offset=".23462"
         style="stop-color:#282828"
         id="stop10111-7" /><stop
         offset=".41869"
         style="stop-color:#313131"
         id="stop10109-2" /><stop
         offset=".61685"
         style="stop-color:#3c3c3c"
         id="stop10107-0" /><stop
         offset=".79369"
         style="stop-color:#3a3a3a"
         id="stop10105-9" /><stop
         offset="1"
         style="stop-color:#2f2f2f"
         id="stop10101-9" /></linearGradient></defs><sodipodi:namedview
     pagecolor="#ffffff"
     bordercolor="#666666"
     borderopacity="1"
     objecttolerance="10"
     gridtolerance="10"
     guidetolerance="10"
     inkscape:pageopacity="0"
     inkscape:pageshadow="2"
     inkscape:window-width="1366"
     inkscape:window-height="704"
     id="namedview5"
     showgrid="false"
     fit-margin-top="0"
     fit-margin-left="0"
     fit-margin-right="0"
     fit-margin-bottom="0"
     inkscape:zoom="2.2407434"
     inkscape:cx="51.934082"
     inkscape:cy="73.792661"
     inkscape:window-x="0"
     inkscape:window-y="27"
     inkscape:window-maximized="1"
     inkscape:current-layer="g4501"
     inkscape:document-rotation="0"
     inkscape:snap-grids="true"
     inkscape:snap-to-guides="true"
     inkscape:snap-others="false"
     inkscape:snap-nodes="false"
     inkscape:snap-global="false" /><g
     id="g4501"
     transform="matrix(0.08858736,0,0,0.08858736,0.63255695,0.63255695)"><rect
       y="-7.1404877"
       x="-7.1404877"
       height="1693.2438"
       width="1693.2438"
       id="rect4496"
       style="fill:#194295;fill-opacity:1;stroke:none;stroke-width:0.37795275;stroke-miterlimit:4;stroke-dasharray:none;stroke-dashoffset:0;stroke-opacity:1" /><path
       id="path7717"
       style="fill:#ffffff;fill-opacity:1;stroke-width:2.96629524"
       inkscape:connector-curvature="0"
       d="m 792.68676,202.25274 10.66621,1310.68256 c 0.58534,72.2445 20.38931,103.3608 36.19347,139.0773 15.8042,-35.7165 35.47809,-66.8328 36.06342,-139.0773 L 886.27608,202.25274 c -0.99069,-25.38568 -81.7669,-23.50401 -93.58932,0 z"
       sodipodi:nodetypes="cccccc" /><path
       style="fill:#ffffff;fill-opacity:1;stroke-width:0.52566332"
       inkscape:connector-curvature="0"
       d="m 428.4878,418.95277 c 8.94991,5.8408 81.50671,68.57293 72.43163,134.52791 -8.5315,55.84491 -58.80331,125.58879 -25.41633,179.50712 6.00202,9.71846 10.38185,15.22676 19.66823,14.83514 23.26322,0.88384 74.79559,-32.23833 136.88322,-47.12766 7.36142,-1.97707 9.69586,-0.86052 12.15073,-6.51892 12.70528,-27.04945 57.37402,-42.75777 87.14077,-49.08325 2.45695,-0.64763 10.35925,-1.10589 7.56639,-5.93671 -1.69157,-2.3519 -4.97645,-3.58195 -25.5036,-11.18346 66.61837,-1.88237 123.09091,35.36549 126.22544,36.24543 2.75132,-0.89774 58.99045,-37.66422 124.82713,-36.29798 l 0.64502,-0.47688 c -0.1472,0.30857 -0.43786,0.91839 -0.58506,1.22697 -2.40698,0.30592 -16.21412,5.85533 -18.90757,6.97453 -3.21136,1.40755 -6.62491,2.8885 -5.32347,6.48354 1.43878,3.12981 5.8785,1.383 29.16276,8.62501 16.21998,4.29522 52.83141,19.03999 64.96311,42.37149 5.467,10.42723 0.203,0.71818 54.2632,20.30274 36.1782,13.10757 65.9823,29.21385 87.0462,33.50172 16.7767,3.26907 19.8067,-2.83657 24.7295,-9.30844 34.8071,-47.8974 -2.3946,-109.18147 -19.7207,-171.29213 -4.5146,-21.04547 -5.0462,-36.21414 3.5044,-60.44197 15.1886,-40.87501 53.1703,-78.2511 66.3439,-86.88839 -2.6563,7.07065 -33.8734,72.03219 -20.9194,130.84822 13.5054,62.40656 84.9163,131.43612 58.8301,230.42696 -31.0477,117.91429 -210.6163,78.35641 -216.9795,80.73451 -0.4557,0.20239 -1.1355,0.35073 -1.0266,0.99509 -0.2802,0.99872 0.4904,1.74207 1.2373,2.27089 5.1843,3.94571 107.2854,47.37691 110.6746,49.88958 -1.9952,3.24924 -66.1986,32.75001 -118.9601,18.16863 -1.7977,-0.47316 -3.5255,-1.22636 -5.3622,-1.50019 -6.9902,2.14827 -2.3355,3.12079 10.4303,39.08444 16.4857,50.26489 23.5922,109.71669 -26.2786,126.48499 -55.55213,19.0499 -77.3214,70.3808 -104.34526,77.878 -2.4112,0.631 -4.53852,2.867 -4.45809,5.4497 -0.0842,7.1181 2.8659,40.7504 -18.84138,61.6058 -8.75491,8.8807 -20.76154,13.8537 -32.89185,15.9811 -1.76619,0.2207 -3.12606,1.4264 -4.26518,2.6987 h -70.18972 c -6.60549,-4.2575 -62.74528,-3.0625 -61.64087,-72.5474 -0.0143,-10.5796 2.25773,-10.6609 -6.56077,-13.8821 -26.25795,-9.3606 -45.38841,-57.1093 -104.56602,-78.0533 -55.81546,-21.3455 -36.27759,-100.50854 -12.14754,-155.50352 1.11441,-2.26027 2.21146,-4.81197 1.46869,-7.35984 -1.59434,-2.68197 -8.58881,-0.23328 -9.49084,0 -21.73882,5.64713 -45.40102,4.57601 -67.50411,-0.31161 -24.40601,-4.50973 -50.30284,-17.7958 -50.82849,-18.02812 92.93674,-41.96478 110.16483,-46.72529 109.11195,-51.54395 -3.92408,-2.84069 -24.92854,2.44467 -60.13695,2.77235 C 398.279,864.08018 390.6968,793.96086 385.06116,742.01219 c -6.79943,-124.14542 115.36048,-153.75334 46.0271,-316.92966 -0.86945,-2.04496 -1.86139,-4.03919 -2.60046,-6.13466 z"
       id="path4486" /><g
       id="g4405"
       transform="translate(-30.312522,-90.306336)"><path
         sodipodi:nodetypes="cccccc"
         d="m 869.68975,231.3146 -659.58664,0.50797 c -36.35624,0.58534 -52.01518,27.16658 -69.98912,42.97074 17.97394,15.8042 33.63288,42.24624 69.98912,42.83157 l 659.58664,0.50797 c 0,0 0.23441,-85.99356 0,-86.81825 z"
         inkscape:connector-curvature="0"
         style="fill:#ffffff;fill-opacity:1;stroke-width:2.10427046"
         id="path7717-3" /><path
         sodipodi:nodetypes="cccccc"
         d="m 869.89811,231.3146 659.58669,0.50797 c 36.3562,0.58534 52.0151,27.16658 69.9891,42.97074 -17.974,15.8042 -33.6329,42.24624 -69.9891,42.83157 l -659.58669,0.50797 c 0,0 -0.2344,-85.99356 0,-86.81825 z"
         inkscape:connector-curvature="0"
         style="fill:#ffffff;fill-opacity:1;stroke-width:2.10427046"
         id="path7717-3-7" /></g></g></svg>
