<?xml version="1.0" encoding="UTF-8" standalone="no"?>
<svg
   xmlns:dc="http://purl.org/dc/elements/1.1/"
   xmlns:cc="http://creativecommons.org/ns#"
   xmlns:rdf="http://www.w3.org/1999/02/22-rdf-syntax-ns#"
   xmlns:svg="http://www.w3.org/2000/svg"
   xmlns="http://www.w3.org/2000/svg"
   xmlns:sodipodi="http://sodipodi.sourceforge.net/DTD/sodipodi-0.dtd"
   xmlns:inkscape="http://www.inkscape.org/namespaces/inkscape"
   version="1.1"
   id="Layer_1"
   x="0px"
   y="0px"
   viewBox="0 0 151.1811 151.1811"
   enable-background="new 0 0 1685.071 1685.155"
   xml:space="preserve"
   sodipodi:docname="logo.svg"
   width="151.18111"
   height="151.18111"
   inkscape:version="0.92.1 r"
   inkscape:export-filename="./logo.png"
   inkscape:export-xdpi="95.25"
   inkscape:export-ydpi="95.25"><metadata
     id="metadata9"><rdf:RDF><cc:Work
         rdf:about=""><dc:format>image/svg+xml</dc:format><dc:type
           rdf:resource="http://purl.org/dc/dcmitype/StillImage" /><dc:title></dc:title></cc:Work></rdf:RDF></metadata><defs
     id="defs7" /><sodipodi:namedview
     pagecolor="#ffffff"
     bordercolor="#666666"
     borderopacity="1"
     objecttolerance="10"
     gridtolerance="10"
     guidetolerance="10"
     inkscape:pageopacity="0"
     inkscape:pageshadow="2"
     inkscape:window-width="1366"
     inkscape:window-height="704"
     id="namedview5"
     showgrid="false"
     fit-margin-top="0"
     fit-margin-left="0"
     fit-margin-right="0"
     fit-margin-bottom="0"
     inkscape:zoom="2.2407434"
     inkscape:cx="76.47885"
     inkscape:cy="90.009148"
     inkscape:window-x="0"
     inkscape:window-y="27"
     inkscape:window-maximized="1"
     inkscape:current-layer="g4501" /><g
     id="g4501"
     transform="matrix(0.08858736,0,0,0.08858736,0.63255695,0.63255695)"><rect
       y="-7.1404877"
       x="-7.1404877"
       height="1706.5765"
       width="1706.5765"
       id="rect4496"
       style="fill:#aad400;fill-opacity:1;stroke:none;stroke-width:0.37795275;stroke-miterlimit:4;stroke-dasharray:none;stroke-dashoffset:0;stroke-opacity:1" /><path
       inkscape:connector-curvature="0"
       style="fill:none;stroke:#000000;stroke-width:12;stroke-miterlimit:4;stroke-dasharray:none;stroke-opacity:1"
       id="path2"
       d="m 421.79681,92.738386 c 73.844,-30.86 153.895,-46.193 233.881,-46.549 113.456,0.049 226.912,0.049 340.368,0.016 34.57199,0.032 69.30499,-0.794 103.74699,3.047 119.826,12.496 235.794,61.201004 327.774,139.194004 114.655,94.93 192.113,233.508 212.211,381.082 8.444,55.302 5.867,111.414 6.208,167.153 0.032,99.955 -0.065,199.893 0.049,299.84801 0.924,103.293 -26.306,206.344 -76.016,296.736 -54.021,96.502 -133.991,178.709 -230.542,233.006 -91.073,52.546 -196.279,79.387 -301.29,79.711 -55.09099,-0.065 -110.19799,0.032 -165.30499,-0.081 -0.097,-128.562 0.081,-257.123 -0.049,-385.669 -72.936,-0.13 -145.872,0.032 -218.792,0 -78.252,1.297 -154.981,-43.518 -193.037,-111.754 -20.341,-34.653 -29.417,-75.173 -28.98,-115.174 0.016,-126.97301 -0.146,-253.96301 0.081,-380.93601 -0.405,-73.698 40.536,-144.948 102.175,-184.56 36.938,-24.928 81.899,-36.387 126.244,-35.82 43.988,0.195 88.009,-0.794 131.998,0.697 -51.314,2.512 -102.71,-0.616 -154.024,1.621 -68.625,4.733 -132.857,44.831 -169.697,102.548 -22.853,34.491 -34.507,75.87 -34.977,117.135 -0.502,63.746 -0.097,127.508 -0.162,191.254 36.176,0.081 72.352,0.113 108.529,-0.016 0.324,-64.816 -0.389,-129.648 0.211,-194.463 0.762,-46.241 34.393,-89.193 78.139,-103.115 17.051,-5.916 35.188,-5.462 52.968,-5.576 121.56,0.259 243.136,0.049 364.71199,0.081 49.937,-0.421 97.264,37.392 108.35,85.983 3.533,12.075 3.144,24.75 3.517,37.214 0.016,59.953 -0.211,119.923 -0.016,179.876 36.176,0.113 72.336,0.113 108.529,0 0.016,-64.816 0.097,-129.648 -0.016,-194.48 -0.908,-72.547 -41.492,-142.274 -102.24,-181.319 -34.685,-23.291 -76.469,-35.171 -118.124,-35.641 -45.93299,-0.648 -91.86699,0.065 -137.78399,-0.146 v -1.718 c 51.233,0.421 102.48299,-0.713 153.69999,0.567 93.812,5.867 178.482,78.22 199.715,169.616 6.159,24.344 6.548,49.645 6.483,74.605 -0.308,121.56 0.113,243.136 -0.194,364.71201 0.308,75.951 -43,149.907 -108.512,187.964 -33.032,20.017 -71.639,30.163 -110.166,30.617 -37.278,0.681 -74.55699,-0.146 -111.83499,0.227 -0.097,36.176 -0.113,72.352 0.016,108.545 61.282,-1.896 123.82899,5.932 184.05799,-8.801 86.761,-20.146 164.106,-76.988 209.099,-153.862 28.931,-48.673 44.491,-104.914 45.917,-161.448 0.843,-48.33201 -0.924,-96.68101 0.697,-144.98001 2.107,48.818 0.778,97.734 0.924,146.60101 -1.41,94.833 -46.42,187.915 -119.826,247.95 -36.614,30.714 -80.197,52.708 -126.293,65.124 -63.454,17.132 -129.76099,9.287 -194.60899,11.103 -0.065,36.16 -0.097,72.336 0.032,108.529 65.107,-1.653 131.28499,5.527 195.45199,-8.736 103.715,-20.827 199.374,-80.229 263.218,-164.689 58.316,-75.529 90.084,-170.459 90.7,-265.778 0.146,-124.26701 -0.097,-248.53301 0.097,-372.80001 2.739,-104.266 -33.243,-209.051 -99.468,-289.62 -69.548,-86.421 -172.745,-145.321 -282.878,-159.713 -24.766,-3.485 -49.791,-4.814 -74.784,-4.571 -58.34899,0.211 -116.68099,-0.049 -175.01399,0.113 -0.081,36.176 -0.113,72.352 0.016,108.529 64.816,0.146 129.648,-0.065 194.46299,0.016 101.089,0.454 200.023,50.877 260.786,131.495 44.458,57.409 68.219,129.891 68.268,202.389 -0.405,45.609 0.745,91.267 -0.632,136.86 -2.399,-48.835 -0.292,-97.734 -1.086,-146.601 -2.577,-98.852 -52.53,-194.82 -131.43,-254.287 -57.409,-44.458 -129.891,-68.219 -202.389,-68.268 -124.26699,0.032 -248.53299,0.146 -372.79999,-0.032 -56.582,-1.183 -113.213,13.08 -163.101,39.629 -47.376,25.965 -88.868,62.952 -118.918,107.945 -35.722,52.238 -55.042,115.093 -56.614,178.255 -0.81,47.781 0.891,95.595 -0.713,143.36 -2.188,-43.421 -0.47,-86.907 -1.118,-130.361 -1.426,-56.728 12.658,-113.553 39.077,-163.684 27.083,-49.904 66.485,-93.228 114.396,-123.845 53.292,-34.799 116.957,-52.692 180.492,-52.887 63.211,-0.032 126.406,0.178 189.633,0 0.065,-36.176 0.097,-72.352 -0.032,-108.529 -62.109,-0.113 -124.234,0.081 -186.343,-0.081 -109.712,-1.216 -218.921,41.201 -299.88,115.109 -55.772,50.536 -98.755,115.401 -122.565,186.862 -16.289,47.165 -23.177,97.264 -23.323,147.055 0.065,121.56 0.113,243.12 -0.016,364.68001 -2.869,107.751 35.771,215.939 106.081,297.611 45.35,53.746 104.46,95.692 169.503,122.192 52.563,22.01 109.42,30.747 166.035,33.388 -40.244,1.994 -80.375,-4.96 -119.145,-15.252 -106.373,-29.239 -201.125,-99.614 -258.323,-194.139 -42.838,-68.268 -64.848,-148.789 -65.675,-229.197 -0.227,-64.81601 0.162,-129.64801 -0.081,-194.46301 -36.176,-0.113 -72.352,-0.146 -108.529,0 -0.13,59.402 0.097,118.821 -0.081,178.23901 -3.014996,130.571 42.092,261.872 125.547,362.427 79.063,97.232 192.599,165.419 315.375,190.282 71.882,15.462 145.791,10.746 218.759,11.281 0.097,-72.903 0.097,-145.807 0,-218.71 -40.52,-0.357 -81.04,0.324 -121.544,-0.178 -104.071,-3.193 -204.934,-58.932 -262.537,-145.742 -37.278,-54.475 -56.614,-120.49 -56.777,-186.376 -0.016,-45.91701 0.081,-91.85101 0,-137.76801 h 1.718 c 0.049,48.624 -0.194,97.248 -0.049,145.87201 2.172,98.545 51.152,194.852 129.842,254.303 55.285,42.757 124.51,66.501 194.285,68.122 38.899,0.486 77.798,-0.227 116.697,0.146 0.049,73.989 0.081,147.979 -0.016,221.984 -69.905,-1.28 -140.653,4.879 -209.747,-8.768 -105.53,-19.255 -205.063,-69.711 -282.489,-144.024 -88.933,-84.508 -148.206,-199.617 -164.916,-321.21 -7.746996,-50.715 -5.43,-102.143 -5.705,-153.23001 -0.032,-99.955 0.081,-199.893 -0.065,-299.848 -1.798996,-87.231 18.574,-174.527 56.793,-252.844 58.251,-118.464 160.07,-214.885 281.824,-266.038 68.576,-28.964 142.971,-43.518 217.381,-43.567 45.058,0.357 90.165,-0.746 135.223,0.632 -54.199,2.561 -108.48,-0.13 -162.696,1.41 -70.375,3.533 -140.021,20.714 -204.026,50.131 -147.167,66.936 -261.79,201.559 -303.331,357.917 -13.874,50.601 -19.871,103.18 -19.563,155.597 0.194,59.402 -0.049,118.821 0.13,178.239 36.176,0.113 72.352,0.13 108.512,0 0.081,-62.109 0.049,-124.234 -0.032,-186.343 -2.026,-126.827 54.832,-252.731 150.199,-336.137 53.243,-47.149 117.881,-81.332 186.975,-98.253 39.191,-9.546 79.662,-13.436 119.955,-13.031 126.973,0.211 253.93,-0.016 380.90399,0.097 121.349,2.788 240.04,58.851 319.913,150.118 37.457,42.659 67.377,92.223 85.886,145.969 18.688,51.395 25.9,106.454 25.398,160.961 -0.097,58.884 -0.162,117.751 -0.049,176.635 36.176,0.081 72.352,0.113 108.545,-0.016 0.081,-62.109 -0.049,-124.234 0.065,-186.343 0.81,-110.733 -33.194,-221.433 -95.611,-312.863 -65.853,-96.843 -162.777,-172.631 -273.493,-211.239 -54.686,-19.66 -112.613,-29.823 -170.638,-31.573 -49.95299,-1.102 -99.92199,0.81 -149.85899,-0.891 40.731,-2.075 81.51,-0.502 122.27299,-1.037 131.625,-3.728004 264.271,41.363 365.668,125.531 90.376,73.584 156.666,176.424 185.419,289.426 12.075,45.966 17.586,93.536 17.845,141.026 -0.032,121.56 -0.081,243.12 0.016,364.68001 3.501,115.547 -30.358,232.001 -95.611,327.45 -81.477,120.863 -212.843,206.652 -356.397,232.195 -69.743,13.177 -141.10699,9.06 -211.65999,8.623 66.031,-3.485 132.72699,3.728 198.22399,-7.861 102.516,-16.937 200.396,-62.563 277.87,-132.014 85.173,-74.816 145.904,-176.926 171.286,-287.384 10.535,-44.54 14.911,-90.424 14.701,-136.147 -0.211,-59.95301 0.049,-119.90701 -0.13,-179.86001 -36.176,-0.13 -72.352,-0.13 -108.512,0 -0.113,62.109 -0.016,124.234 0.032,186.34301 1.621,100.344 -32.675,200.801 -95.092,279.328 -63.616,81.688 -157.477,138.951 -258.939,159.178 -65.367,13.355 -132.45199,7.747 -198.67699,8.785 -0.097,-74.006 -0.097,-147.995 0,-221.968 40.504,-0.324 81.02399,0.34 121.52699,-0.162 73.73,-3.63 144.089,-47.117 180.071,-111.592 20.341,-34.653 29.417,-75.173 28.98,-115.174 0.065,-61.59001 0.032,-123.18101 -0.016,-184.75501 -36.192,-0.097 -72.369,-0.113 -108.529,0.016 -0.243,64.816 0.211,129.648 -0.081,194.48001 -0.178,48.527 -36.695,94.752 -84.281,105.076 -14.717,4.246 -30.228,3.177 -45.334,3.582 -31.03799,-0.211 -62.07699,0.454 -93.09899,-0.729 38.024,-2.285 76.12899,-0.097 114.18499,-1.167 47.976,-0.746 93.245,-37.149 103.472,-84.152 3.582,-12.059 3.177,-24.798 3.55,-37.213 -0.081,-121.57601 -0.146,-243.15201 0.032,-364.71201 2.318,-39.418 -18.607,-77.831 -51.039,-99.711 -21.07,-14.263 -47.019,-19.758 -72.223,-18.655 -124.26699,0.276 -248.54899,-0.227 -372.81599,0.243 -46.241,0.762 -89.193,34.393 -103.115,78.139 -5.916,17.051 -5.462,35.188 -5.576,52.968 0.324,121.56 -0.065,243.136 0.162,364.71201 0.032,52.595 42.935,101.235 95.303,107.378 41.849,3.096 83.876,-0.389 125.774,1.896 -38.04,1.653 -76.129,0.875 -114.185,0.859 -48.527,-0.178 -94.752,-36.695 -105.076,-84.281 -3.582,-12.059 -3.209,-24.798 -3.55,-37.214 -0.016,-60.50401 0.194,-121.00901 0.016,-181.52901 -36.176,-0.065 -72.352,-0.097 -108.529,0.032 -0.049,64.816 -0.016,129.648 -0.032,194.46301 0.502,76.161 44.475,150.118 110.684,187.575 34.896,20.73 75.821,30.033 116.227,29.58 70.764,0.049 141.528,0.049 212.292,-0.032 0.211,-55.091 -0.13,-110.166 0.097,-165.256 54.021,-0.227 108.042,0.211 162.07999,-0.016 27.375,1.686 54.783,-20.001 57.376,-47.651 1.572,-15.949 0.973,-31.995 1.021,-47.97601 -0.34,-113.472 0.178,-226.944 -0.211,-340.4 1.248,-30.325 -26.208,-58.738 -56.647,-58.025 -126.92499,-0.502 -253.89799,-0.502 -380.82299,0.016 -22.367,-0.827 -42.027,14.668 -51.801,33.842 -5.527,12.059 -4.684,25.836 -5.089,38.769 0.405,121.576 -0.146,243.152 0.243,364.72801 -1.378,29.661 25.025,57.538 55.026,56.387 55.075,0.989 110.182,-0.146 165.273,0.357 0.049,37.246 0.097,74.492 -0.016,111.754 -56.728,0.049 -113.456,0.081 -170.184,0.049 -58.657,-0.762 -114.963,-35.998 -142.339,-87.701 -14.312,-26.062 -20.309,-56.144 -19.741,-85.724 0.308,-44.00501 -0.778,-88.00901 0.746,-131.99801 2.318,48.802 -0.194,97.685 1.232,146.52001 2.204,58.235 38.672,113.148 90.554,139.227 25.284,13.177 54.151,18.574 82.531,18.072 51.849,-0.016 103.715,0.016 155.564,-0.081 0.114,-36.176 0.114,-72.352 0,-108.529 -54.021,-0.227 -108.059,0.211 -162.08,-0.016 -27.375,1.686 -54.783,-20.001 -57.376,-47.651 -1.929,-21.346 -0.762,-42.805 -0.94,-64.18401 0.016,-108.075 0.065,-216.133 -0.065,-324.208 -2.512,-31.362 25.074,-62.012 56.841,-61.25 121.527,-0.859 243.103,0.162 364.64699,-0.454 14.02,0.146 28.947,-1.086 42.027,5.138 12.448,6.37 22.869,16.662 29.191,29.174 5.527,12.059 4.652,25.836 5.089,38.769 -0.421,124.267 0.194,248.549 -0.276,372.83201 -0.697,17.391 -11.281,32.918 -25.074,42.886 -13.339,9.239 -30.552,8.914 -46.079,9.093 -49.69399,-0.13 -99.40399,-0.276 -149.11299,-0.097 -0.065,36.16 -0.097,72.336 0.032,108.512 54.021,0.049 108.042,0.081 162.06399,0.065 60.358,1.086 119.08,-34.539 147.201,-87.718 12.918,-23.68 19.352,-50.699 19.579,-77.604 0.502,-45.91701 -0.114,-91.85101 0.081,-137.78401 h 1.718 c -0.259,48.624 0.34,97.248 -0.211,145.87201 -1.815,58.77 -38.316,114.477 -90.716,140.782 -25.284,13.177 -54.151,18.574 -82.531,18.072 -52.39999,0.097 -104.80099,-0.211 -157.21699,0.016 -0.032,109.647 -0.065,219.294 0.016,328.941 48.608,0.146 97.215,-0.081 145.83899,0.081 109.226,3.695 219.488,-29.79 307.838,-94.185 80.991,-57.943 143.473,-141.123 176.748,-234.967 18.056,-49.791 27.408,-102.58 28.964,-155.483 1.086,-49.95301 -0.843,-99.92201 0.875,-149.85901 2.075,40.731 0.502,81.51 1.037,122.27301 3.679,109.226 -29.79,219.488 -94.185,307.838 -58.187,81.332 -141.836,144.008 -236.166,177.169 -54.54,19.66 -112.629,28.721 -170.524,28.834 -53.46999,0.032 -106.95599,-0.195 -160.42699,-0.016 -0.097,36.176 -0.113,72.352 0.016,108.529 54.005,0.097 108.026,-0.016 162.03099,0.081 100.425,0.681 200.412,-25.414 288.891,-72.547 93.585,-51.169 174.398,-126.293 229.635,-217.722 58.657,-94.8 89.063,-206.246 89.306,-317.579 -0.194,-135.07701 0.243,-270.15501 -0.211,-405.21601 -5.073,-113.521 -42.076,-225.728 -106.989,-319.135 -68.787,-100.052 -167.801,-179.26 -281.192,-222.925004 -72.709,-28.639 -151.123,-41.881 -229.165,-41.492 -59.95299,0.194 -119.90699,-0.049 -179.85999,0.13 -0.13,36.176 -0.13,72.352004 0,108.512004 62.109,0.113 124.234,0 186.34299,-0.016 113.845,-1.394 227.706,38.462 315.974,110.328 101.77,80.781 169.341,203.037 183.134,332.264 4.862,41.411 3.047,83.147 3.355,124.737 0.065,22.918 0.292,45.852 -0.648,68.787 -3.695,-65.529 2.982,-131.43 -4.376,-196.765 -6.499,-46.695 -18.299,-92.888 -37.311,-136.115 -48.689,-113.602 -141.269,-207.673 -254.174,-258.015 -51.233,-22.869 -106.34,-37.23 -162.291,-41.59 -31.217,-2.869 -62.611,-1.88 -93.90899,-1.961 -105.352,-0.032 -210.704,0.065 -316.056,-0.065 -120.215,-2.934 -240.964,40.115 -332.199,118.432 -100.279,83.666 -164.835,208.548 -174.771,338.795 -4.587,58.981 -0.049,118.205 -2.674,177.267 -1.945,-43.437 -0.438,-86.907 -0.972,-130.361 -1.378,-65.788 11.508,-131.69 35.966,-192.68 50.099,-125.596 153.538,-228.824 279.523,-278.096 56.809,-22.578 117.816,-34.053 178.904,-34.863 64.816,-0.259 129.631,0.162 194.463,-0.097 0.113,-36.176 0.13,-72.352004 0,-108.529004 -62.109,-0.097 -124.234,0.065 -186.343,-0.065 -94.12,-0.908 -187.964,21.767 -272.31,63.227004 -130.436,64.863 -236.696,177.509 -292.207996,312.359 -30.86,73.844 -46.193,153.895 -46.549,233.881 0.194,135.061 -0.243,270.155 0.211,405.21601 5.592,127.038 51.509,252.31 131.138996,351.648 69.24,88.301 163.976,156.18 269.522,194.123 68.722,24.96 142.031,36.533 215.064,36.16 51.298,-0.194 102.613,0.049 153.927,-0.13 0.097,-109.663 0.065,-219.31 0.016,-328.941 -54.021,-0.178 -108.042,0.081 -162.064,-0.016 -84.087,1.475 -167.445,-38.851 -219.229,-104.947 -37.197,-46.841 -58.349,-105.903 -59.321,-165.71 -0.648,-65.91801 0.097,-131.83601 -0.259,-197.75401 -36.176,-0.065 -72.352,-0.097 -108.529,0.032 -0.13,59.402 0.113,118.821 -0.097,178.23901 -3.031,95.335 30.633,191.432 93.131,263.574 62.06,73.519 153.036,121.868 248.695,132.322 32.854,4.198 66.047,2.528 99.079,2.836 0.081,37.262 0.113,74.508 0,111.77 -34.491,-0.243 -69.095,1.394 -103.472,-1.929 -99.501,-9.984 -196.1,-49.921 -272.31,-114.915 -82.952,-68.803 -141.447,-166.035 -164.754,-271.16 -9.644,-42.254 -12.723,-85.74 -12.205,-128.983 0.502,-39.67701 -0.729,-79.37001 0.681,-119.01501 4.879,79.727 -6.953,161.05901 11.67,239.60301 20.762,101.478 74.978,195.452 151.383,265.227 80.181,73.357 185.095,119.242 293.51,127.638 31.2,2.853 62.563,1.978 93.86,1.88 0.113,-36.176 0.13,-72.336 0,-108.496 -24.312,-0.097 -48.608,0.211 -72.904,-0.178 -104.574,-5.041 -206.214,-54.362 -274.223,-134.04 -58.316,-67.02 -91.591,-154.689 -93.504,-243.411 -0.454,-132.37101 -0.016,-264.75701 -0.211,-397.14401 0.405,-109.274 50.715,-216.782 133.262,-288.162 65.351,-57.879 150.848,-91.867 237.998,-95.481 51.282,-1.167 102.596,-0.13 153.895,-0.519 v 1.718 c -48.624,0.049 -97.248,-0.194 -145.872,-0.032 -123.375,2.593 -243.152,68.9 -311.242,171.74 -43.437,62.919 -65.869,139.34 -66.388,215.599 -0.032,63.211 -0.049,126.406 0.049,189.633 36.176,0.065 72.336,0.097 108.512,-0.032 0.194,-64.816 -0.146,-129.648 0.065,-194.48 0.405,-90.878 50.034,-179.536 126.422,-228.468 45.091,-30.471 99.695,-45.496 153.927,-45.399 126.973,-0.097 253.947,0.065 380.91999,-0.065 91.964,-0.616 182.21,49.159 231.725,126.503 30.471,45.091 45.48,99.695 45.399,153.927 0.194,62.66 -0.178,125.32 0.065,187.98 36.16,0.113 72.336,0.113 108.529,0 0.13,-59.418 -0.113,-118.821 0.097,-178.239 2.626,-93.633 -30.147,-187.899 -90.878,-259.279 -64.589,-78.366 -161.334,-129.307 -262.602,-137.671 -56.825,-4.311 -113.92599,0.065 -170.81599,-2.35 43.405,-2.204 86.907,-0.535 130.36099,-1.118 94.898,-1.977 190.071,32.562 261.289,95.352 82.288,70.002 132.014,176.002 134.008,283.964 0.486,126.973 -0.049,253.947 0.259,380.92001 2.901,92.24 -28.445,185.241 -87.183,256.475 -61.639,76.599 -154.008,127.687 -251.677,139.048 -34.377,4.652 -69.143,3.031 -103.69899,3.209 l 0.032,-1.702 c 45.68999,0.292 92.06099,2.253 136.81099,-8.833 99.76,-21.508 190.136,-84.265 244.044,-171.059 39.385,-60.893 59.402,-133.44 59.969,-205.776 0.032,-63.74601 0.032,-127.49201 -0.032,-191.23801 -36.192,-0.081 -72.369,-0.113 -108.528,0.016 -0.097,62.109 -0.049,124.234 0.048,186.34301 2.188,78.673 -32.14,156.942 -90.052,209.926 -34.296,30.584 -75.805,53.697 -120.733,64.021 -39.888,10.162 -81.494,8.655 -122.25699,7.456 24.48999,-1.524 49.02899,-0.648 73.55199,-1.378 84.897,-5.641 166.472,-52.579 212.373,-124.461 30.471,-45.091 45.48,-99.695 45.399,-153.927 0.097,-113.45601 -0.065,-226.92801 0.049,-340.38401 -0.211,-31.135 1.848,-62.806 -5.592,-93.342 -14.814,-74.006 -61.574,-140.928 -125.806,-180.508 -44.134,-28.348 -96.729,-42.254 -149.016,-42.189 -62.12499,-0.081 -124.23399,-0.049 -186.35899,0.032 -0.113,36.176 -0.146,72.352 0,108.512 64.816,0.162 129.648,-0.097 194.47999,0.016 67.117,0.697 129.956,47.068 153.165,109.566 6.678,18.347 10.292,37.813 10.373,57.36 0.454,45.917 -0.049,91.851 0.178,137.784 h -1.718 c -0.049,-45.933 0.13,-91.851 0.114,-137.784 -0.049,-66.355 -44.783,-128.951 -105.984,-153.376 -21.881,-8.801 -45.593,-12.334 -69.111,-11.945 -126.94099,0.308 -253.91399,-0.454 -380.85499,0.357 -79.241,2.674 -150.07,69.727 -157.72,148.546 -3.144,51.558 0.421,103.31 -1.75,154.916 -2.156,-43.421 -0.584,-86.923 -1.118,-130.377 -1.232,-36.646 9.303,-73.925 31.006,-103.618 29.336,-41.103 77.053,-69.224 127.978,-70.975 66.404,-1.183 132.841,0.016 199.261,-0.47 0.081,-36.192 0.113,-72.369 -0.016,-108.545 -64.816,0.049 -129.648,-0.227 -194.479,0.097 -90.327,0.859 -178.191,50.439 -226.847,126.341 -30.471,45.091 -45.496,99.695 -45.399,153.927 -0.113,124.267 0.113,248.533 -0.097,372.80001 -2.35,85.141 38.024,170.038 105.011,222.487 46.841,37.197 105.887,58.349 165.71,59.321 56.712,0.665 113.44,-0.13 170.168,0.259 0.097,110.717 0.097,221.433 0,332.166 -51.315,0.178 -102.629,-0.065 -153.927,0.113 -111.997,2.431 -224.497,-27.359 -320.837,-84.443 -112.548,-66.27 -202.713,-169.742 -252.227996,-290.637 -30.601,-73.536 -45.739,-153.198 -46.112,-232.779 0.032,-126.95701 0.081,-253.93001 -0.016,-380.88801 -0.908,-94.12 21.767,-187.964 63.226996,-272.31 64.864,-130.442 177.51,-236.701 312.36,-292.214004 z" /><path
       style="fill:#ffffff;stroke-width:0.25705346"
       inkscape:connector-curvature="0"
       d="m 645.16869,640.50488 c 4.37658,2.85612 39.85742,33.53264 35.41964,65.78512 -4.17197,27.3086 -28.75528,61.41394 -12.42879,87.78042 2.93504,4.75241 5.07681,7.44607 9.61792,7.25457 11.3759,0.43211 36.57563,-15.76484 66.93697,-23.04587 3.59979,-0.96678 4.74135,-0.42079 5.9418,-3.18773 6.21298,-13.22745 28.05635,-20.90898 42.61252,-24.00211 1.20147,-0.31669 5.06576,-0.54084 3.70002,-2.90315 -0.82719,-1.15006 -2.43352,-1.75157 -12.47146,-5.46881 32.57691,-0.92052 60.19242,17.29404 61.72523,17.72434 1.34542,-0.43904 28.8468,-18.41813 61.04146,-17.75006 l 0.31541,-0.23315 c -0.072,0.1509 -0.21413,0.44908 -0.2861,0.59997 -1.17706,0.1496 -7.92882,2.86332 -9.24596,3.41058 -1.57035,0.68839 -3.23965,1.41251 -2.60319,3.1705 0.70357,1.5305 2.87463,0.67631 14.26082,4.21774 7.93164,2.10038 25.8349,9.31073 31.76744,20.72005 2.67336,5.09891 0.0992,0.35114 26.53511,9.92817 17.69143,6.40964 32.26587,14.28576 42.56627,16.38254 8.2039,1.59861 9.6856,-1.38706 12.0929,-4.5519 17.021,-23.4222 -1.1709,-53.39052 -9.6436,-83.76319 -2.2076,-10.29139 -2.4676,-17.70893 1.7137,-29.55652 7.4274,-19.98822 26.0007,-38.26549 32.4427,-42.48915 -1.2989,3.45763 -16.5643,35.2243 -10.2297,63.98576 6.6042,30.51738 41.5247,64.27339 28.7684,112.68067 -15.1826,57.66095 -102.99312,38.3169 -106.10475,39.47981 -0.22286,0.0995 -0.55524,0.17146 -0.50202,0.48661 -0.13701,0.4884 0.23983,0.85187 0.6051,1.11047 2.53506,1.92944 52.46337,23.16771 54.12077,24.39643 -0.9757,1.58884 -32.37174,16.01495 -58.17245,8.88455 -0.87911,-0.23135 -1.72405,-0.59971 -2.62221,-0.73364 -3.41828,1.05057 -1.14208,1.52613 5.10047,19.11269 8.06171,24.57972 11.53681,53.6522 -12.85036,61.85197 -27.16541,9.31559 -37.81076,34.41674 -51.02563,38.08294 -1.17911,0.3085 -2.2194,1.402 -2.18007,2.6649 -0.0411,3.4808 1.40145,19.9273 -9.21357,30.1257 -4.28123,4.3428 -10.15258,6.7746 -16.08435,7.8149 -0.8637,0.108 -1.52869,0.6976 -2.08573,1.3197 h -34.32332 c -3.23014,-2.0819 -30.68294,-1.4976 -30.14287,-35.4762 -0.007,-5.1735 1.10405,-5.2133 -3.20827,-6.7885 -12.84034,-4.5774 -22.19529,-27.92685 -51.1336,-38.16862 -27.2942,-10.43817 -17.74003,-49.1494 -5.94024,-76.04232 0.54495,-1.10533 1.08142,-2.35308 0.7182,-3.59901 -0.77965,-1.31149 -4.2,-0.11413 -4.6411,0.003 -10.63045,2.76152 -22.20145,2.23765 -33.01004,-0.15244 -11.93473,-2.20527 -24.59848,-8.7023 -24.85553,-8.81591 45.4468,-20.52109 53.87147,-22.84897 53.3566,-25.20538 -1.91891,-1.38911 -12.19025,1.19556 -29.40744,1.35571 -71.71944,-0.7224 -75.42719,-35.01128 -78.18306,-60.41459 -3.32498,-60.70806 56.41217,-75.18659 22.50761,-154.98113 -0.42517,-0.99994 -0.91023,-1.9752 -1.27165,-2.99982 z"
       id="path4486" /></g></svg>