<?xml version="1.0" encoding="UTF-8" standalone="no"?>
<!-- Created with Inkscape (http://www.inkscape.org/) -->

<svg
   xmlns:dc="http://purl.org/dc/elements/1.1/"
   xmlns:cc="http://creativecommons.org/ns#"
   xmlns:rdf="http://www.w3.org/1999/02/22-rdf-syntax-ns#"
   xmlns:svg="http://www.w3.org/2000/svg"
   xmlns="http://www.w3.org/2000/svg"
   xmlns:sodipodi="http://sodipodi.sourceforge.net/DTD/sodipodi-0.dtd"
   xmlns:inkscape="http://www.inkscape.org/namespaces/inkscape"
   version="1.1"
   id="svg2"
   width="400"
   height="130"
   viewBox="0 0 400 130"
   sodipodi:docname="formx.jpg.svg"
   inkscape:version="0.92.4 5da689c313, 2019-01-14">
  <metadata
     id="metadata8">
    <rdf:RDF>
      <cc:Work
         rdf:about="">
        <dc:format>image/svg+xml</dc:format>
        <dc:type
           rdf:resource="http://purl.org/dc/dcmitype/StillImage" />
        <dc:title></dc:title>
      </cc:Work>
    </rdf:RDF>
  </metadata>
  <defs
     id="defs6" />
  <sodipodi:namedview
     pagecolor="#ffffff"
     bordercolor="#666666"
     borderopacity="1"
     objecttolerance="10"
     gridtolerance="10"
     guidetolerance="10"
     inkscape:pageopacity="0"
     inkscape:pageshadow="2"
     inkscape:window-width="1366"
     inkscape:window-height="704"
     id="namedview4"
     showgrid="false"
     fit-margin-top="0"
     fit-margin-left="0"
     fit-margin-right="0"
     fit-margin-bottom="0"
     inkscape:zoom="0.834386"
     inkscape:cx="104.21552"
     inkscape:cy="35.031169"
     inkscape:window-x="0"
     inkscape:window-y="27"
     inkscape:window-maximized="1"
     inkscape:current-layer="svg2" />
  <g
     transform="matrix(1.4762212,0,0,1.4719161,251.50169,22.441423)"
     id="g4632">
    <path
       inkscape:connector-curvature="0"
       id="path869"
       d="m 29.26045,-15.246401 -87.841797,0.0078 c -94.690123,0.0102 -91.555803,-0.09471 -98.861323,3.314453 -3.92409,1.83119 -9.08486,6.9852223 -11.08984,11.07617226 l -1.56836,3.20117204 -0.1875,25.6640637 c -0.18303,25.12495 -0.15679,25.74341 1.22461,29.43555 2.52771,6.7559 9.87283,12.7189 18.13672,14.72656 v 0.0019 c 2.46046,0.59775 24.23464,0.79639 91.707021,0.83789 L 29.26045,73.07385 V 28.91369 Z m -99.841797,13.4394533 5.28125,0.00586 c 12.92365,0.01286 20.772253,1.99588996 23.845703,6.02539 2.19663,2.87993 3.633226,8.8655207 3.160157,13.1679707 -0.761441,6.92506 -2.610875,10.51188 -6.677735,12.95312 -1.23719,0.74266 -2.339372,1.4161 -2.451172,1.4961 -0.28011,0.20045 10.180692,25.40507 10.857422,26.16015 0.31716,0.3539 0.548735,-0.04826 0.552735,-0.96093 0.0036,-0.8624 0.289688,-4.87974 0.636718,-8.92774 0.81522,-9.50946 3.835938,-47.81541974 3.835938,-48.64452974 0,-0.381 2.804465,-0.63476596 7.015625,-0.63476596 h 7.015625 l 0.626953,2.398438 c 0.34515,1.32 2.092432,8.8807807 3.882812,16.8007777 1.79038,7.92 3.4222833,14.83138 3.6269533,15.35938 0.204671,0.528 2.057865,-6.38338 4.117188,-15.35938 2.05932,-8.9759967 3.904803,-16.9677617 4.101562,-17.75976174 0.34376048,-1.38369996 0.63011928,-1.43945396 7.3554692,-1.43945396 h 6.9999995 l 0.31836,2.08007796 c 0.59338,3.87061004 4.67025,57.75457774 4.40625,58.23827774 -0.14408,0.264 -2.837155,0.48047 -5.984375,0.48047 -3.1472297,0 -5.7226095,-0.21647 -5.7246095,-0.48047 -0.0115,-1.82901 -2.6305362,-33.08562 -2.7851562,-33.24023 -0.10702,-0.10702 -0.5331656,1.31752 -0.9472656,3.16406 -0.4141,1.84655 -2.22056192,9.4891 -4.0136724,16.98438 l -3.259765,13.6289 -4.236328,-0.18945 -4.2382813,-0.1875 -0.765626,-2.87891 c -0.421799,-1.584 -2.276783,-9.21693 -4.121093,-16.96093 -1.8443,-7.744 -3.433903,-13.79146 -3.533203,-13.43946 -0.09929,0.352 -0.63647,6.68808 -1.19336,14.08008 -0.55688,7.392 -1.175923,14.80643 -1.376953,16.47656 l -0.367187,3.03711 -12.177735,-0.1582 -12.177734,-0.15625 -4.882813,-12.16016 -4.880859,-12.16015 -0.173828,12.32031 -0.173828,12.32031 h -5.748047 -5.746094 v -30.71875 z m -81.279293,0.640625 h 17.59961 17.59961 v 5.439454 5.439453 h -11.83984 -11.83985 v 6.4003887 6.40039 h 8 8 v 5.41992 5.41993 l -7.83984,0.17968 -7.83985,0.17969 -0.17382,12.96094 -0.17188,12.95898 h -5.74804 -5.7461 v -30.40039 z m 56.162105,0.00781 c 3.70776,-0.053101 7.487266,0.67923396 9.904298,2.09570296 C -77.856308,5.5891403 -73.84855,14.94975 -73.80205,28.95477 c 0.02824,8.4939 -0.833858,13.28033 -3.298828,18.32031 -2.40123,4.90966 -5.627058,8.25079 -9.798828,10.14844 -10.419819,4.73975 -21.419714,0.44122 -26.333984,-10.29297 -4.56651,-9.97456 -4.45147,-26.9917 0.24805,-36.769532 2.35965,-4.9094797 6.78303,-9.1514237 11.00195,-10.55273374 1.86251,-0.618623 4.060505,-0.93493596 6.285155,-0.96679696 z m 38.716798,8.935547 c -1.972646,-0.126737 -2.078126,1.83589 -2.078126,8.9550757 0,8.32828 0.0015,8.33985 1.503907,8.33985 2.56386,0 5.403699,-1.30226 6.505859,-2.98438 0.5799,-0.88503 1.192408,-3.09549 1.361328,-4.91211 0.42605,-4.58179 -1.115582,-7.4734417 -4.632812,-8.6894517 -1.137635,-0.393315 -2.002608,-0.666739 -2.660156,-0.708984 z M -95.712205,9.956721 c -4.400485,0.232936 -7.477955,4.225729 -8.804685,11.523439 -0.86214,4.74216 -0.52923,14.39372 0.63477,18.38867 0.8991,3.0858 3.21333,6.43158 5.160145,7.46094 0.92105,0.48698 2.77423,0.71788 4.43946,0.55273 2.25911,-0.22404 3.29203,-0.75794 4.929684,-2.54492 3.24943,-3.54575 4.250595,-8.04588 3.921875,-17.63867 -0.39531,-11.53561 -2.800275,-16.62623 -8.316409,-17.609376 -0.6814,-0.121448 -1.3362,-0.1660887 -1.96484,-0.132813 z"
       style="fill:#fc0000;stroke-width:0.63999999" />
    <path
       id="path869-3"
       d="m 33.07401,-15.245458 v 44.160155 44.15821 h 21.67187 c 12.06505,0 23.1996,-0.28869 25.11719,-0.65235 8.26219,-1.5669 15.81339,-7.09774 19.01367,-13.92578 l 1.7168,-3.66016 V 28.914697 2.9928238 L 98.88846,-0.64584825 C 95.71872,-7.4077682 88.45521,-12.723281 79.92166,-14.528661 c -2.12387,-0.44933 -11.51203,-0.716797 -25.11914,-0.716797 z m 39.9082,14.0800778 h 5.64453 c 3.10516,0 5.64649,0.137921 5.64649,0.30664095 0,0.16873 -2.88039,6.82555205 -6.40039,14.79492625 -3.52,7.96937 -6.4004,14.74584 -6.4004,15.05859 0,0.31276 2.8804,7.07242 6.4004,15.02149 3.52,7.94906 6.40039,14.71506 6.40039,15.03515 0,0.69934 -9.59604,0.76959 -10.6836,0.0781 -0.41954,-0.26674 -2.6127,-4.59247 -4.875,-9.61328 l -4.11328,-9.12891 -3.64844,8.09765 c -2.00646,4.45393 -3.90951,8.78401 -4.22851,9.62305 -0.55242,1.45302 -0.85618,1.52539 -6.39844,1.52539 -5.26945,0 -5.7856,-0.10598 -5.46094,-1.1289 0.19719,-0.62128 3.09683,-7.3096 6.44336,-14.86133 3.34654,-7.55172 6.08399,-14.18285 6.08399,-14.73633 0,-0.55348 -2.87844,-7.4192 -6.39844,-15.25781 -3.52,-7.8386142 -6.40039,-14.39047725 -6.40039,-14.55859725 0,-0.16814995 2.64282,-0.22230395 5.87305,-0.12109395 l 5.87304,0.18359395 3.88672,8.75390605 c 2.13777,4.8144112 4.05343,8.9165412 4.25586,9.1152312 0.20244,0.19869 2.19719,-3.81296 4.43359,-8.9140592 z"
       style="fill:#000000;stroke-width:0.63999999"
       inkscape:connector-curvature="0" />
  </g>
</svg>
